<?xml version="1.0" standalone="no"?>
<!DOCTYPE svg PUBLIC "-//W3C//DTD SVG 20010904//EN"
 "http://www.w3.org/TR/2001/REC-SVG-20010904/DTD/svg10.dtd">
<svg version="1.0" xmlns="http://www.w3.org/2000/svg"
 width="2250.000000pt" height="2250.000000pt" viewBox="0 0 2250.000000 2250.000000"
 preserveAspectRatio="xMidYMid meet">

<g transform="translate(0.000000,2250.000000) scale(0.100000,-0.100000)"
fill="#000000" stroke="none">
<path d="M11045 18224 c-1299 -70 -2323 -446 -3215 -1182 -149 -123 -497 -472
-630 -632 -265 -318 -531 -715 -718 -1071 -49 -92 -112 -257 -112 -292 0 -4
606 -6 1348 -5 l1347 3 66 32 c45 22 102 66 180 139 498 462 997 709 1599 790
154 21 498 24 655 5 229 -27 506 -86 714 -153 817 -260 1379 -826 1695 -1705
20 -55 36 -103 36 -107 0 -3 -1952 -6 -4338 -6 -2893 0 -4365 -3 -4419 -10
-227 -29 -435 -123 -596 -270 -128 -117 -236 -299 -284 -478 -24 -87 -27 -115
-27 -267 0 -151 3 -181 26 -266 111 -411 453 -691 905 -739 54 -6 222 -10 373
-8 270 2 276 2 322 -21 95 -46 128 -102 197 -337 107 -364 211 -634 362 -939
574 -1168 1524 -1994 2839 -2470 1384 -500 2776 -466 4114 101 356 151 784
385 1130 617 317 212 475 512 475 902 1 294 -90 524 -284 721 -111 113 -213
185 -351 251 -132 62 -224 84 -379 90 -275 10 -489 -68 -790 -288 -456 -333
-953 -528 -1550 -605 -182 -24 -563 -24 -740 0 -619 83 -1127 314 -1563 708
-328 297 -639 754 -757 1111 -25 76 -45 142 -45 147 0 7 1319 11 3848 12
l3847 3 35 21 c40 23 75 71 90 123 15 51 57 388 71 571 25 321 14 799 -27
1120 -109 864 -450 1670 -1001 2363 -403 507 -934 980 -1453 1294 -663 402
-1350 627 -2160 708 -148 15 -685 27 -835 19z"/>
<path d="M4565 10136 c-183 -30 -363 -100 -489 -190 -74 -53 -198 -181 -247
-256 -130 -197 -199 -425 -199 -659 0 -377 132 -641 659 -1321 451 -582 984
-1127 1526 -1561 1122 -898 2428 -1474 3915 -1728 551 -95 1026 -138 1625
-147 310 -6 376 -4 580 15 436 41 639 70 995 141 1627 326 2991 994 4157 2037
158 141 519 506 667 673 311 351 623 760 871 1140 197 302 252 497 242 859 -5
202 -19 267 -92 416 -119 247 -351 442 -633 534 -151 49 -262 64 -440 58 -185
-5 -270 -24 -409 -91 -236 -114 -370 -247 -603 -596 -425 -640 -951 -1195
-1560 -1647 -493 -366 -1049 -667 -1630 -883 -930 -345 -1955 -470 -2945 -359
-1268 141 -2480 655 -3450 1462 -511 425 -924 893 -1331 1507 -236 355 -413
501 -703 577 -80 22 -123 26 -261 29 -104 2 -194 -2 -245 -10z"/>
</g>
</svg>
